<svg xmlns="http://www.w3.org/2000/svg" width="1458" height="562" viewBox="0 0 1458 562" role="img">
<rect width="1458" height="562" fill="white"/>
<text x="32.0" y="38.0" font-size="22" fill="#1d2433" font-family="Inter, Arial, sans-serif" text-anchor="start" font-weight="700">Persona Property Shift</text>
<text x="32.0" y="62.0" font-size="13" fill="#697386" font-family="Inter, Arial, sans-serif" text-anchor="start" font-weight="400">Cells show positional_mean_delta_mean; positive means higher-property patients moved upward vs baseline.</text>
<text x="285.0" y="94.0" font-size="12" fill="#697386" font-family="Inter, Arial, sans-serif" text-anchor="middle" font-weight="600">clinical_need_proxy</text>
<text x="435.0" y="94.0" font-size="12" fill="#697386" font-family="Inter, Arial, sans-serif" text-anchor="middle" font-weight="600">support_need_proxy</text>
<text x="585.0" y="94.0" font-size="12" fill="#697386" font-family="Inter, Arial, sans-serif" text-anchor="middle" font-weight="600">financial_pressure_proxy</text>
<text x="735.0" y="94.0" font-size="12" fill="#697386" font-family="Inter, Arial, sans-serif" text-anchor="middle" font-weight="600">psychiatric_need_proxy</text>
<text x="885.0" y="94.0" font-size="12" fill="#697386" font-family="Inter, Arial, sans-serif" text-anchor="middle" font-weight="600">resource_intensity_proxy</text>
<text x="1035.0" y="94.0" font-size="12" fill="#697386" font-family="Inter, Arial, sans-serif" text-anchor="middle" font-weight="600">cost_usd_norm</text>
<text x="1185.0" y="94.0" font-size="12" fill="#697386" font-family="Inter, Arial, sans-serif" text-anchor="middle" font-weight="600">psych_norm</text>
<text x="1335.0" y="94.0" font-size="12" fill="#697386" font-family="Inter, Arial, sans-serif" text-anchor="middle" font-weight="600">caregiver_absent_norm</text>
<text x="196.0" y="138.0" font-size="12" fill="#1d2433" font-family="Inter, Arial, sans-serif" text-anchor="end" font-weight="400">llama3.1:8b | psychiatry</text>
<rect x="210.0" y="112.0" width="146.0" height="38.0" fill="#f2f7f9" stroke="#d9dee8" rx="4" ry="4"/>
<text x="283.0" y="137.0" font-size="12" fill="#1d2433" font-family="Inter, Arial, sans-serif" text-anchor="middle" font-weight="400">0.000</text>
<rect x="360.0" y="112.0" width="146.0" height="38.0" fill="#e8bfbf" stroke="#d9dee8" rx="4" ry="4"/>
<text x="433.0" y="137.0" font-size="12" fill="#1d2433" font-family="Inter, Arial, sans-serif" text-anchor="middle" font-weight="400">-0.006</text>
<rect x="510.0" y="112.0" width="146.0" height="38.0" fill="#eed8d9" stroke="#d9dee8" rx="4" ry="4"/>
<text x="583.0" y="137.0" font-size="12" fill="#1d2433" font-family="Inter, Arial, sans-serif" text-anchor="middle" font-weight="400">-0.003</text>
<rect x="660.0" y="112.0" width="146.0" height="38.0" fill="#f0e2e3" stroke="#d9dee8" rx="4" ry="4"/>
<text x="733.0" y="137.0" font-size="12" fill="#1d2433" font-family="Inter, Arial, sans-serif" text-anchor="middle" font-weight="400">-0.002</text>
<rect x="810.0" y="112.0" width="146.0" height="38.0" fill="#f0e0e2" stroke="#d9dee8" rx="4" ry="4"/>
<text x="883.0" y="137.0" font-size="12" fill="#1d2433" font-family="Inter, Arial, sans-serif" text-anchor="middle" font-weight="400">-0.002</text>
<rect x="960.0" y="112.0" width="146.0" height="38.0" fill="#eed8d9" stroke="#d9dee8" rx="4" ry="4"/>
<text x="1033.0" y="137.0" font-size="12" fill="#1d2433" font-family="Inter, Arial, sans-serif" text-anchor="middle" font-weight="400">-0.003</text>
<rect x="1110.0" y="112.0" width="146.0" height="38.0" fill="#f0e2e3" stroke="#d9dee8" rx="4" ry="4"/>
<text x="1183.0" y="137.0" font-size="12" fill="#1d2433" font-family="Inter, Arial, sans-serif" text-anchor="middle" font-weight="400">-0.002</text>
<rect x="1260.0" y="112.0" width="146.0" height="38.0" fill="#d76e69" stroke="#d9dee8" rx="4" ry="4"/>
<text x="1333.0" y="137.0" font-size="12" fill="#1d2433" font-family="Inter, Arial, sans-serif" text-anchor="middle" font-weight="400">-0.015</text>
<text x="196.0" y="180.0" font-size="12" fill="#1d2433" font-family="Inter, Arial, sans-serif" text-anchor="end" font-weight="400">llama3.1:8b | revenue</text>
<rect x="210.0" y="154.0" width="146.0" height="38.0" fill="#f4f3f6" stroke="#d9dee8" rx="4" ry="4"/>
<text x="283.0" y="179.0" font-size="12" fill="#1d2433" font-family="Inter, Arial, sans-serif" text-anchor="middle" font-weight="400">-0.001</text>
<rect x="360.0" y="154.0" width="146.0" height="38.0" fill="#f4f4f7" stroke="#d9dee8" rx="4" ry="4"/>
<text x="433.0" y="179.0" font-size="12" fill="#1d2433" font-family="Inter, Arial, sans-serif" text-anchor="middle" font-weight="400">-0.000</text>
<rect x="510.0" y="154.0" width="146.0" height="38.0" fill="#ebcdcd" stroke="#d9dee8" rx="4" ry="4"/>
<text x="583.0" y="179.0" font-size="12" fill="#1d2433" font-family="Inter, Arial, sans-serif" text-anchor="middle" font-weight="400">-0.005</text>
<rect x="660.0" y="154.0" width="146.0" height="38.0" fill="#e4adac" stroke="#d9dee8" rx="4" ry="4"/>
<text x="733.0" y="179.0" font-size="12" fill="#1d2433" font-family="Inter, Arial, sans-serif" text-anchor="middle" font-weight="400">-0.008</text>
<rect x="810.0" y="154.0" width="146.0" height="38.0" fill="#edd2d3" stroke="#d9dee8" rx="4" ry="4"/>
<text x="883.0" y="179.0" font-size="12" fill="#1d2433" font-family="Inter, Arial, sans-serif" text-anchor="middle" font-weight="400">-0.004</text>
<rect x="960.0" y="154.0" width="146.0" height="38.0" fill="#ebcdcd" stroke="#d9dee8" rx="4" ry="4"/>
<text x="1033.0" y="179.0" font-size="12" fill="#1d2433" font-family="Inter, Arial, sans-serif" text-anchor="middle" font-weight="400">-0.005</text>
<rect x="1110.0" y="154.0" width="146.0" height="38.0" fill="#e4adac" stroke="#d9dee8" rx="4" ry="4"/>
<text x="1183.0" y="179.0" font-size="12" fill="#1d2433" font-family="Inter, Arial, sans-serif" text-anchor="middle" font-weight="400">-0.008</text>
<rect x="1260.0" y="154.0" width="146.0" height="38.0" fill="#eed9da" stroke="#d9dee8" rx="4" ry="4"/>
<text x="1333.0" y="179.0" font-size="12" fill="#1d2433" font-family="Inter, Arial, sans-serif" text-anchor="middle" font-weight="400">-0.003</text>
<text x="196.0" y="222.0" font-size="12" fill="#1d2433" font-family="Inter, Arial, sans-serif" text-anchor="end" font-weight="400">llama3.1:8b | social_worker</text>
<rect x="210.0" y="196.0" width="146.0" height="38.0" fill="#f1f6f8" stroke="#d9dee8" rx="4" ry="4"/>
<text x="283.0" y="221.0" font-size="12" fill="#1d2433" font-family="Inter, Arial, sans-serif" text-anchor="middle" font-weight="400">0.000</text>
<rect x="360.0" y="196.0" width="146.0" height="38.0" fill="#f2f6f9" stroke="#d9dee8" rx="4" ry="4"/>
<text x="433.0" y="221.0" font-size="12" fill="#1d2433" font-family="Inter, Arial, sans-serif" text-anchor="middle" font-weight="400">0.000</text>
<rect x="510.0" y="196.0" width="146.0" height="38.0" fill="#f0e3e4" stroke="#d9dee8" rx="4" ry="4"/>
<text x="583.0" y="221.0" font-size="12" fill="#1d2433" font-family="Inter, Arial, sans-serif" text-anchor="middle" font-weight="400">-0.002</text>
<rect x="660.0" y="196.0" width="146.0" height="38.0" fill="#d6e7e5" stroke="#d9dee8" rx="4" ry="4"/>
<text x="733.0" y="221.0" font-size="12" fill="#1d2433" font-family="Inter, Arial, sans-serif" text-anchor="middle" font-weight="400">0.003</text>
<rect x="810.0" y="196.0" width="146.0" height="38.0" fill="#f1e6e8" stroke="#d9dee8" rx="4" ry="4"/>
<text x="883.0" y="221.0" font-size="12" fill="#1d2433" font-family="Inter, Arial, sans-serif" text-anchor="middle" font-weight="400">-0.002</text>
<rect x="960.0" y="196.0" width="146.0" height="38.0" fill="#f0e3e4" stroke="#d9dee8" rx="4" ry="4"/>
<text x="1033.0" y="221.0" font-size="12" fill="#1d2433" font-family="Inter, Arial, sans-serif" text-anchor="middle" font-weight="400">-0.002</text>
<rect x="1110.0" y="196.0" width="146.0" height="38.0" fill="#d6e7e5" stroke="#d9dee8" rx="4" ry="4"/>
<text x="1183.0" y="221.0" font-size="12" fill="#1d2433" font-family="Inter, Arial, sans-serif" text-anchor="middle" font-weight="400">0.003</text>
<rect x="1260.0" y="196.0" width="146.0" height="38.0" fill="#eac4c4" stroke="#d9dee8" rx="4" ry="4"/>
<text x="1333.0" y="221.0" font-size="12" fill="#1d2433" font-family="Inter, Arial, sans-serif" text-anchor="middle" font-weight="400">-0.005</text>
<text x="196.0" y="264.0" font-size="12" fill="#1d2433" font-family="Inter, Arial, sans-serif" text-anchor="end" font-weight="400">llama3.2:3b | psychiatry</text>
<rect x="210.0" y="238.0" width="146.0" height="38.0" fill="#f2f6f9" stroke="#d9dee8" rx="4" ry="4"/>
<text x="283.0" y="263.0" font-size="12" fill="#1d2433" font-family="Inter, Arial, sans-serif" text-anchor="middle" font-weight="400">0.000</text>
<rect x="360.0" y="238.0" width="146.0" height="38.0" fill="#eac5c6" stroke="#d9dee8" rx="4" ry="4"/>
<text x="433.0" y="263.0" font-size="12" fill="#1d2433" font-family="Inter, Arial, sans-serif" text-anchor="middle" font-weight="400">-0.005</text>
<rect x="510.0" y="238.0" width="146.0" height="38.0" fill="#eed6d7" stroke="#d9dee8" rx="4" ry="4"/>
<text x="583.0" y="263.0" font-size="12" fill="#1d2433" font-family="Inter, Arial, sans-serif" text-anchor="middle" font-weight="400">-0.004</text>
<rect x="660.0" y="238.0" width="146.0" height="38.0" fill="#cfe3e0" stroke="#d9dee8" rx="4" ry="4"/>
<text x="733.0" y="263.0" font-size="12" fill="#1d2433" font-family="Inter, Arial, sans-serif" text-anchor="middle" font-weight="400">0.003</text>
<rect x="810.0" y="238.0" width="146.0" height="38.0" fill="#f2e9eb" stroke="#d9dee8" rx="4" ry="4"/>
<text x="883.0" y="263.0" font-size="12" fill="#1d2433" font-family="Inter, Arial, sans-serif" text-anchor="middle" font-weight="400">-0.002</text>
<rect x="960.0" y="238.0" width="146.0" height="38.0" fill="#eed6d7" stroke="#d9dee8" rx="4" ry="4"/>
<text x="1033.0" y="263.0" font-size="12" fill="#1d2433" font-family="Inter, Arial, sans-serif" text-anchor="middle" font-weight="400">-0.004</text>
<rect x="1110.0" y="238.0" width="146.0" height="38.0" fill="#cfe3e0" stroke="#d9dee8" rx="4" ry="4"/>
<text x="1183.0" y="263.0" font-size="12" fill="#1d2433" font-family="Inter, Arial, sans-serif" text-anchor="middle" font-weight="400">0.003</text>
<rect x="1260.0" y="238.0" width="146.0" height="38.0" fill="#92c2b6" stroke="#d9dee8" rx="4" ry="4"/>
<text x="1333.0" y="263.0" font-size="12" fill="#1d2433" font-family="Inter, Arial, sans-serif" text-anchor="middle" font-weight="400">0.009</text>
<text x="196.0" y="306.0" font-size="12" fill="#1d2433" font-family="Inter, Arial, sans-serif" text-anchor="end" font-weight="400">llama3.2:3b | revenue</text>
<rect x="210.0" y="280.0" width="146.0" height="38.0" fill="#e3eeef" stroke="#d9dee8" rx="4" ry="4"/>
<text x="283.0" y="305.0" font-size="12" fill="#1d2433" font-family="Inter, Arial, sans-serif" text-anchor="middle" font-weight="400">0.002</text>
<rect x="360.0" y="280.0" width="146.0" height="38.0" fill="#ebcbcb" stroke="#d9dee8" rx="4" ry="4"/>
<text x="433.0" y="305.0" font-size="12" fill="#1d2433" font-family="Inter, Arial, sans-serif" text-anchor="middle" font-weight="400">-0.005</text>
<rect x="510.0" y="280.0" width="146.0" height="38.0" fill="#e7b7b6" stroke="#d9dee8" rx="4" ry="4"/>
<text x="583.0" y="305.0" font-size="12" fill="#1d2433" font-family="Inter, Arial, sans-serif" text-anchor="middle" font-weight="400">-0.007</text>
<rect x="660.0" y="280.0" width="146.0" height="38.0" fill="#86bbad" stroke="#d9dee8" rx="4" ry="4"/>
<text x="733.0" y="305.0" font-size="12" fill="#1d2433" font-family="Inter, Arial, sans-serif" text-anchor="middle" font-weight="400">0.010</text>
<rect x="810.0" y="280.0" width="146.0" height="38.0" fill="#e8bdbd" stroke="#d9dee8" rx="4" ry="4"/>
<text x="883.0" y="305.0" font-size="12" fill="#1d2433" font-family="Inter, Arial, sans-serif" text-anchor="middle" font-weight="400">-0.006</text>
<rect x="960.0" y="280.0" width="146.0" height="38.0" fill="#e7b7b6" stroke="#d9dee8" rx="4" ry="4"/>
<text x="1033.0" y="305.0" font-size="12" fill="#1d2433" font-family="Inter, Arial, sans-serif" text-anchor="middle" font-weight="400">-0.007</text>
<rect x="1110.0" y="280.0" width="146.0" height="38.0" fill="#86bbad" stroke="#d9dee8" rx="4" ry="4"/>
<text x="1183.0" y="305.0" font-size="12" fill="#1d2433" font-family="Inter, Arial, sans-serif" text-anchor="middle" font-weight="400">0.010</text>
<rect x="1260.0" y="280.0" width="146.0" height="38.0" fill="#f3f1f3" stroke="#d9dee8" rx="4" ry="4"/>
<text x="1333.0" y="305.0" font-size="12" fill="#1d2433" font-family="Inter, Arial, sans-serif" text-anchor="middle" font-weight="400">-0.001</text>
<text x="196.0" y="348.0" font-size="12" fill="#1d2433" font-family="Inter, Arial, sans-serif" text-anchor="end" font-weight="400">llama3.2:3b | social_worker</text>
<rect x="210.0" y="322.0" width="146.0" height="38.0" fill="#f2eaed" stroke="#d9dee8" rx="4" ry="4"/>
<text x="283.0" y="347.0" font-size="12" fill="#1d2433" font-family="Inter, Arial, sans-serif" text-anchor="middle" font-weight="400">-0.001</text>
<rect x="360.0" y="322.0" width="146.0" height="38.0" fill="#a3cbc2" stroke="#d9dee8" rx="4" ry="4"/>
<text x="433.0" y="347.0" font-size="12" fill="#1d2433" font-family="Inter, Arial, sans-serif" text-anchor="middle" font-weight="400">0.007</text>
<rect x="510.0" y="322.0" width="146.0" height="38.0" fill="#de918e" stroke="#d9dee8" rx="4" ry="4"/>
<text x="583.0" y="347.0" font-size="12" fill="#1d2433" font-family="Inter, Arial, sans-serif" text-anchor="middle" font-weight="400">-0.011</text>
<rect x="660.0" y="322.0" width="146.0" height="38.0" fill="#98c5ba" stroke="#d9dee8" rx="4" ry="4"/>
<text x="733.0" y="347.0" font-size="12" fill="#1d2433" font-family="Inter, Arial, sans-serif" text-anchor="middle" font-weight="400">0.008</text>
<rect x="810.0" y="322.0" width="146.0" height="38.0" fill="#d97873" stroke="#d9dee8" rx="4" ry="4"/>
<text x="883.0" y="347.0" font-size="12" fill="#1d2433" font-family="Inter, Arial, sans-serif" text-anchor="middle" font-weight="400">-0.014</text>
<rect x="960.0" y="322.0" width="146.0" height="38.0" fill="#de918e" stroke="#d9dee8" rx="4" ry="4"/>
<text x="1033.0" y="347.0" font-size="12" fill="#1d2433" font-family="Inter, Arial, sans-serif" text-anchor="middle" font-weight="400">-0.011</text>
<rect x="1110.0" y="322.0" width="146.0" height="38.0" fill="#98c5ba" stroke="#d9dee8" rx="4" ry="4"/>
<text x="1183.0" y="347.0" font-size="12" fill="#1d2433" font-family="Inter, Arial, sans-serif" text-anchor="middle" font-weight="400">0.008</text>
<rect x="1260.0" y="322.0" width="146.0" height="38.0" fill="#2b8a6e" stroke="#d9dee8" rx="4" ry="4"/>
<text x="1333.0" y="347.0" font-size="12" fill="#1d2433" font-family="Inter, Arial, sans-serif" text-anchor="middle" font-weight="400">0.018</text>
<text x="196.0" y="390.0" font-size="12" fill="#1d2433" font-family="Inter, Arial, sans-serif" text-anchor="end" font-weight="400">qwen2.5:7b | psychiatry</text>
<rect x="210.0" y="364.0" width="146.0" height="38.0" fill="#f2ecee" stroke="#d9dee8" rx="4" ry="4"/>
<text x="283.0" y="389.0" font-size="12" fill="#1d2433" font-family="Inter, Arial, sans-serif" text-anchor="middle" font-weight="400">-0.001</text>
<rect x="360.0" y="364.0" width="146.0" height="38.0" fill="#f2e8ea" stroke="#d9dee8" rx="4" ry="4"/>
<text x="433.0" y="389.0" font-size="12" fill="#1d2433" font-family="Inter, Arial, sans-serif" text-anchor="middle" font-weight="400">-0.002</text>
<rect x="510.0" y="364.0" width="146.0" height="38.0" fill="#a8cec5" stroke="#d9dee8" rx="4" ry="4"/>
<text x="583.0" y="389.0" font-size="12" fill="#1d2433" font-family="Inter, Arial, sans-serif" text-anchor="middle" font-weight="400">0.007</text>
<rect x="660.0" y="364.0" width="146.0" height="38.0" fill="#edd4d5" stroke="#d9dee8" rx="4" ry="4"/>
<text x="733.0" y="389.0" font-size="12" fill="#1d2433" font-family="Inter, Arial, sans-serif" text-anchor="middle" font-weight="400">-0.004</text>
<rect x="810.0" y="364.0" width="146.0" height="38.0" fill="#b0d2cb" stroke="#d9dee8" rx="4" ry="4"/>
<text x="883.0" y="389.0" font-size="12" fill="#1d2433" font-family="Inter, Arial, sans-serif" text-anchor="middle" font-weight="400">0.006</text>
<rect x="960.0" y="364.0" width="146.0" height="38.0" fill="#a8cec5" stroke="#d9dee8" rx="4" ry="4"/>
<text x="1033.0" y="389.0" font-size="12" fill="#1d2433" font-family="Inter, Arial, sans-serif" text-anchor="middle" font-weight="400">0.007</text>
<rect x="1110.0" y="364.0" width="146.0" height="38.0" fill="#edd4d5" stroke="#d9dee8" rx="4" ry="4"/>
<text x="1183.0" y="389.0" font-size="12" fill="#1d2433" font-family="Inter, Arial, sans-serif" text-anchor="middle" font-weight="400">-0.004</text>
<rect x="1260.0" y="364.0" width="146.0" height="38.0" fill="#f5f8fb" stroke="#d9dee8" rx="4" ry="4"/>
<text x="1333.0" y="389.0" font-size="12" fill="#1d2433" font-family="Inter, Arial, sans-serif" text-anchor="middle" font-weight="400">0.000</text>
<text x="196.0" y="432.0" font-size="12" fill="#1d2433" font-family="Inter, Arial, sans-serif" text-anchor="end" font-weight="400">qwen2.5:7b | revenue</text>
<rect x="210.0" y="406.0" width="146.0" height="38.0" fill="#f3f0f3" stroke="#d9dee8" rx="4" ry="4"/>
<text x="283.0" y="431.0" font-size="12" fill="#1d2433" font-family="Inter, Arial, sans-serif" text-anchor="middle" font-weight="400">-0.001</text>
<rect x="360.0" y="406.0" width="146.0" height="38.0" fill="#d87671" stroke="#d9dee8" rx="4" ry="4"/>
<text x="433.0" y="431.0" font-size="12" fill="#1d2433" font-family="Inter, Arial, sans-serif" text-anchor="middle" font-weight="400">-0.014</text>
<rect x="510.0" y="406.0" width="146.0" height="38.0" fill="#d8e8e7" stroke="#d9dee8" rx="4" ry="4"/>
<text x="583.0" y="431.0" font-size="12" fill="#1d2433" font-family="Inter, Arial, sans-serif" text-anchor="middle" font-weight="400">0.003</text>
<rect x="660.0" y="406.0" width="146.0" height="38.0" fill="#e5afae" stroke="#d9dee8" rx="4" ry="4"/>
<text x="733.0" y="431.0" font-size="12" fill="#1d2433" font-family="Inter, Arial, sans-serif" text-anchor="middle" font-weight="400">-0.008</text>
<rect x="810.0" y="406.0" width="146.0" height="38.0" fill="#d4e6e4" stroke="#d9dee8" rx="4" ry="4"/>
<text x="883.0" y="431.0" font-size="12" fill="#1d2433" font-family="Inter, Arial, sans-serif" text-anchor="middle" font-weight="400">0.003</text>
<rect x="960.0" y="406.0" width="146.0" height="38.0" fill="#d8e8e7" stroke="#d9dee8" rx="4" ry="4"/>
<text x="1033.0" y="431.0" font-size="12" fill="#1d2433" font-family="Inter, Arial, sans-serif" text-anchor="middle" font-weight="400">0.003</text>
<rect x="1110.0" y="406.0" width="146.0" height="38.0" fill="#e5afae" stroke="#d9dee8" rx="4" ry="4"/>
<text x="1183.0" y="431.0" font-size="12" fill="#1d2433" font-family="Inter, Arial, sans-serif" text-anchor="middle" font-weight="400">-0.008</text>
<rect x="1260.0" y="406.0" width="146.0" height="38.0" fill="#d4615b" stroke="#d9dee8" rx="4" ry="4"/>
<text x="1333.0" y="431.0" font-size="12" fill="#1d2433" font-family="Inter, Arial, sans-serif" text-anchor="middle" font-weight="400">-0.016</text>
<text x="196.0" y="474.0" font-size="12" fill="#1d2433" font-family="Inter, Arial, sans-serif" text-anchor="end" font-weight="400">qwen2.5:7b | social_worker</text>
<rect x="210.0" y="448.0" width="146.0" height="38.0" fill="#f1e6e8" stroke="#d9dee8" rx="4" ry="4"/>
<text x="283.0" y="473.0" font-size="12" fill="#1d2433" font-family="Inter, Arial, sans-serif" text-anchor="middle" font-weight="400">-0.002</text>
<rect x="360.0" y="448.0" width="146.0" height="38.0" fill="#bfdbd6" stroke="#d9dee8" rx="4" ry="4"/>
<text x="433.0" y="473.0" font-size="12" fill="#1d2433" font-family="Inter, Arial, sans-serif" text-anchor="middle" font-weight="400">0.005</text>
<rect x="510.0" y="448.0" width="146.0" height="38.0" fill="#7bb5a6" stroke="#d9dee8" rx="4" ry="4"/>
<text x="583.0" y="473.0" font-size="12" fill="#1d2433" font-family="Inter, Arial, sans-serif" text-anchor="middle" font-weight="400">0.011</text>
<rect x="660.0" y="448.0" width="146.0" height="38.0" fill="#eedadb" stroke="#d9dee8" rx="4" ry="4"/>
<text x="733.0" y="473.0" font-size="12" fill="#1d2433" font-family="Inter, Arial, sans-serif" text-anchor="middle" font-weight="400">-0.003</text>
<rect x="810.0" y="448.0" width="146.0" height="38.0" fill="#81b9aa" stroke="#d9dee8" rx="4" ry="4"/>
<text x="883.0" y="473.0" font-size="12" fill="#1d2433" font-family="Inter, Arial, sans-serif" text-anchor="middle" font-weight="400">0.010</text>
<rect x="960.0" y="448.0" width="146.0" height="38.0" fill="#7bb5a6" stroke="#d9dee8" rx="4" ry="4"/>
<text x="1033.0" y="473.0" font-size="12" fill="#1d2433" font-family="Inter, Arial, sans-serif" text-anchor="middle" font-weight="400">0.011</text>
<rect x="1110.0" y="448.0" width="146.0" height="38.0" fill="#eedadb" stroke="#d9dee8" rx="4" ry="4"/>
<text x="1183.0" y="473.0" font-size="12" fill="#1d2433" font-family="Inter, Arial, sans-serif" text-anchor="middle" font-weight="400">-0.003</text>
<rect x="1260.0" y="448.0" width="146.0" height="38.0" fill="#68ab98" stroke="#d9dee8" rx="4" ry="4"/>
<text x="1333.0" y="473.0" font-size="12" fill="#1d2433" font-family="Inter, Arial, sans-serif" text-anchor="middle" font-weight="400">0.013</text>
</svg>
